<svg version="1.1" id="Layer_1" xmlns="http://www.w3.org/2000/svg" xmlns:xlink="http://www.w3.org/1999/xlink" x="0px" y="0px"
	 width="100%" viewBox="0 0 500 281" enable-background="new 0 0 500 281" xml:space="preserve">
<path fill="#000000" opacity="1.000000" stroke="none" 
	d="
M368.000000,282.000000 
	C245.333359,282.000000 123.166710,282.000000 1.000049,282.000000 
	C1.000033,188.333374 1.000033,94.666740 1.000016,1.000087 
	C167.666595,1.000058 334.333191,1.000058 500.999817,1.000029 
	C500.999878,94.666588 500.999878,188.333176 500.999939,281.999878 
	C456.833344,282.000000 412.666656,282.000000 368.000000,282.000000 
M294.212860,167.445770 
	C294.205261,175.635300 294.197662,183.824814 294.038910,192.459442 
	C294.038910,192.459442 293.887878,192.904602 293.013794,192.956619 
	C290.671570,193.010391 288.329346,193.064163 285.487915,193.036926 
	C285.325043,193.077225 285.162140,193.117508 284.071960,193.022446 
	C278.813904,193.022446 273.555817,193.022446 267.837830,193.022446 
	C267.837830,202.401474 267.837830,211.189743 266.920898,219.989655 
	C257.598328,219.989853 248.273880,219.882797 238.954086,220.044342 
	C235.350143,220.106812 233.826553,218.907166 233.955124,215.168701 
	C234.155228,209.349258 233.878647,203.514343 234.032150,197.692001 
	C234.121460,194.304184 232.902039,192.858109 229.405731,192.967010 
	C223.917664,193.137939 218.414810,192.851410 212.928116,193.042694 
	C209.291000,193.169510 207.945343,191.843094 207.956863,188.142838 
	C208.053864,157.012360 208.057220,125.881317 207.955185,94.750885 
	C207.942673,90.937027 209.509262,89.838234 213.034241,89.961052 
	C218.188538,90.140633 223.362839,89.812042 228.511871,90.054810 
	C232.528107,90.244179 234.265167,88.941063 234.061661,84.700661 
	C233.790649,79.053825 234.118958,73.380661 233.968307,67.724709 
	C233.878952,64.369858 235.035629,62.905319 238.562439,62.970390 
	C248.380615,63.151546 258.203064,63.099220 268.016937,64.052200 
	C268.016937,72.623962 268.016937,81.195717 268.016937,89.860779 
	C274.475677,89.860779 280.272308,89.860779 286.928131,89.961136 
	C289.231812,89.978943 291.535492,89.996750 293.975250,90.944717 
	C293.982788,96.769157 293.892303,102.596146 294.044037,108.416824 
	C294.108643,110.895561 294.679779,113.361092 295.942139,115.973724 
	C300.945801,115.929016 305.949432,115.884308 311.606049,115.957138 
	C312.047150,115.927994 312.488281,115.898857 313.873108,115.942207 
	C329.529022,115.959122 345.185364,115.922516 360.840576,116.035332 
	C364.222412,116.059700 366.088348,115.332207 366.048431,111.373154 
	C365.893982,96.051682 365.935394,80.727478 366.020294,65.404945 
	C366.038025,62.209846 364.833740,60.911167 361.616028,60.979774 
	C355.789642,61.104004 349.956970,60.913818 344.129395,61.007484 
	C341.139771,61.055531 339.938599,59.802517 339.993286,56.840691 
	C340.091614,51.512962 339.746552,46.165810 340.074860,40.856956 
	C340.362305,36.209213 338.579193,34.843052 334.065063,34.918354 
	C320.244873,35.148891 306.415741,34.847755 292.595734,35.082985 
	C288.152618,35.158607 286.689423,33.625225 286.933716,29.305037 
	C287.224701,24.158548 286.834717,18.976139 287.042755,13.821524 
	C287.194275,10.067589 285.622925,8.921559 282.031799,8.957285 
	C265.712494,9.119637 249.391312,9.096478 232.119827,9.028095 
	C226.519241,9.028095 220.918671,9.028095 214.835068,9.028095 
	C214.835068,18.059980 214.835068,26.524181 213.918457,34.994881 
	C202.614670,35.020035 191.310883,35.045193 179.066010,35.012157 
	C173.480255,35.012157 167.894516,35.012157 162.030884,35.012157 
	C162.030884,44.379795 162.030884,53.159115 161.161621,61.971317 
	C159.421494,61.957962 157.681351,61.944607 155.513870,61.187313 
	C149.094955,61.187313 142.676041,61.187313 136.168823,61.187313 
	C136.168823,88.435822 136.168823,115.219093 136.024536,142.929657 
	C136.024536,169.177933 136.024536,195.426193 136.024536,221.757874 
	C142.029312,221.757874 147.488220,221.757874 153.411926,221.939133 
	C153.411926,221.939133 153.908447,221.890320 154.793167,221.955612 
	C157.147736,221.981934 159.502289,222.008270 161.998703,222.959564 
	C161.998703,231.199509 161.998703,239.439453 161.998703,247.868240 
	C168.381866,247.868240 174.162933,247.868240 180.885925,247.940109 
	C192.263443,247.995529 203.640976,248.050949 215.002151,249.024124 
	C215.002151,257.266510 215.002151,265.508911 215.002151,273.875366 
	C221.454819,273.875366 227.251175,273.875366 233.974457,273.971008 
	C249.788681,273.979156 265.604889,273.851471 281.415863,274.082428 
	C285.867859,274.147491 287.322632,272.603638 287.063324,268.298218 
	C286.773621,263.488281 287.265717,258.628601 286.927460,253.825043 
	C286.597229,249.135040 288.491913,247.848450 292.960876,247.920441 
	C306.773926,248.142944 320.595459,247.847214 334.408051,248.082520 
	C338.850739,248.158203 340.309357,246.621613 340.065765,242.305878 
	C339.775482,237.162094 340.163788,231.982590 339.957062,226.830627 
	C339.807037,223.091293 341.348022,221.829742 344.955048,221.958496 
	C350.274963,222.148346 355.611206,221.866989 360.932434,222.037735 
	C364.419373,222.149643 366.085999,221.137283 366.048615,217.282974 
	C365.901642,202.136032 365.908600,186.986084 366.047241,171.838974 
	C366.081299,168.117996 364.669403,166.921875 361.057220,166.955566 
	C344.746307,167.107727 328.433624,167.069565 311.161224,167.026642 
	C305.785004,167.072159 300.408813,167.117676 294.212860,167.445770 
z"/>
<path fill="#3A3A3A" opacity="1.000000" stroke="none" 
	d="
M233.070801,9.140058 
	C249.391312,9.096478 265.712494,9.119637 282.031799,8.957285 
	C285.622925,8.921559 287.194275,10.067589 287.042755,13.821524 
	C286.834717,18.976139 287.224701,24.158548 286.933716,29.305037 
	C286.689423,33.625225 288.152618,35.158607 292.595734,35.082985 
	C306.415741,34.847755 320.244873,35.148891 334.065063,34.918354 
	C338.579193,34.843052 340.362305,36.209213 340.074860,40.856956 
	C339.746552,46.165810 340.091614,51.512962 339.993286,56.840691 
	C339.938599,59.802517 341.139771,61.055531 344.129395,61.007484 
	C349.956970,60.913818 355.789642,61.104004 361.616028,60.979774 
	C364.833740,60.911167 366.038025,62.209846 366.020294,65.404945 
	C365.935394,80.727478 365.893982,96.051682 366.048431,111.373154 
	C366.088348,115.332207 364.222412,116.059700 360.840576,116.035332 
	C345.185364,115.922516 329.529022,115.959122 313.367371,115.641953 
	C312.791260,115.178596 312.720886,115.015495 312.681000,114.394043 
	C312.711517,105.722679 312.711517,97.509666 312.711517,89.171150 
	C306.269714,89.171150 300.649963,89.171150 294.762909,89.180138 
	C294.276825,89.464272 294.058014,89.739418 293.839172,90.014557 
	C291.535492,89.996750 289.231812,89.978943 286.516907,89.454285 
	C286.105682,80.413879 286.105682,71.880325 286.105682,63.139103 
	C279.558960,63.139103 273.791412,63.139103 268.023834,63.139103 
	C258.203064,63.099220 248.380615,63.151546 238.562439,62.970390 
	C235.035629,62.905319 233.878952,64.369858 233.968307,67.724709 
	C234.118958,73.380661 233.790649,79.053825 234.061661,84.700661 
	C234.265167,88.941063 232.528107,90.244179 228.511871,90.054810 
	C223.362839,89.812042 218.188538,90.140633 213.034241,89.961052 
	C209.509262,89.838234 207.942673,90.937027 207.955185,94.750885 
	C208.057220,125.881317 208.053864,157.012360 207.956863,188.142838 
	C207.945343,191.843094 209.291000,193.169510 212.928116,193.042694 
	C218.414810,192.851410 223.917664,193.137939 229.405731,192.967010 
	C232.902039,192.858109 234.121460,194.304184 234.032150,197.692001 
	C233.878647,203.514343 234.155228,209.349258 233.955124,215.168701 
	C233.826553,218.907166 235.350143,220.106812 238.954086,220.044342 
	C248.273880,219.882797 257.598328,219.989853 267.645508,220.333130 
	C272.678284,220.785568 276.995117,220.762192 281.291840,221.045013 
	C284.770325,221.273987 286.048065,219.894684 285.962311,216.446899 
	C285.776489,208.973587 285.841980,201.494019 285.888184,193.799927 
	C285.971710,193.582855 285.987122,193.117935 285.987122,193.117935 
	C288.329346,193.064163 290.671570,193.010391 293.646149,193.296997 
	C298.945312,194.089600 303.617065,194.496597 308.277130,195.010117 
	C311.322510,195.345688 312.421417,194.072830 312.353027,191.056335 
	C312.172119,183.073242 312.185516,175.085739 312.121582,167.099991 
	C328.433624,167.069565 344.746307,167.107727 361.057220,166.955566 
	C364.669403,166.921875 366.081299,168.117996 366.047241,171.838974 
	C365.908600,186.986084 365.901642,202.136032 366.048615,217.282974 
	C366.085999,221.137283 364.419373,222.149643 360.932434,222.037735 
	C355.611206,221.866989 350.274963,222.148346 344.955048,221.958496 
	C341.348022,221.829742 339.807037,223.091293 339.957062,226.830627 
	C340.163788,231.982590 339.775482,237.162094 340.065765,242.305878 
	C340.309357,246.621613 338.850739,248.158203 334.408051,248.082520 
	C320.595459,247.847214 306.773926,248.142944 292.960876,247.920441 
	C288.491913,247.848450 286.597229,249.135040 286.927460,253.825043 
	C287.265717,258.628601 286.773621,263.488281 287.063324,268.298218 
	C287.322632,272.603638 285.867859,274.147491 281.415863,274.082428 
	C265.604889,273.851471 249.788681,273.979156 233.542114,273.466003 
	C233.109787,264.759552 233.109787,256.558075 233.109787,248.106354 
	C226.556198,248.106354 220.787354,248.106354 215.018494,248.106354 
	C203.640976,248.050949 192.263443,247.995529 180.478882,247.449509 
	C180.071823,238.407257 180.071823,229.855621 180.071823,220.503754 
	C173.490570,221.056870 167.673706,221.545731 161.856857,222.034607 
	C159.502289,222.008270 157.147736,221.981934 154.349823,221.682922 
	C153.906479,221.410233 153.726624,220.964096 153.772949,220.499786 
	C153.830978,195.548859 153.858948,171.062241 153.816437,146.575729 
	C153.813721,145.007767 153.265549,143.440765 153.125458,141.492203 
	C153.469238,139.156036 153.820114,137.201263 153.823486,135.245880 
	C153.862457,112.661461 153.799805,90.076645 153.939697,67.493027 
	C153.951187,65.635040 155.243851,63.784988 155.941223,61.931248 
	C157.681351,61.944607 159.421494,61.957962 161.978455,62.139877 
	C167.359558,62.536892 171.929199,62.691036 176.486084,63.021259 
	C179.284973,63.224091 180.298569,62.094746 180.242233,59.330227 
	C180.077438,51.245365 180.073853,43.157211 180.007095,35.070351 
	C191.310883,35.045193 202.614670,35.020035 214.641449,35.342140 
	C220.867188,35.768108 226.369919,35.846817 232.098251,35.867588 
	C232.544922,35.205429 232.765976,34.601212 233.035461,33.530689 
	C233.079514,25.089609 233.075165,17.114834 233.070801,9.140058 
z"/>
<path fill="#60D8A4" opacity="1.000000" stroke="none" 
	d="
M155.727539,61.559280 
	C155.243851,63.784988 153.951187,65.635040 153.939697,67.493027 
	C153.799805,90.076645 153.862457,112.661461 153.823486,135.245880 
	C153.820114,137.201263 153.469238,139.156036 152.662201,141.538773 
	C146.752670,141.978424 141.460754,141.990402 136.168823,142.002365 
	C136.168823,115.219093 136.168823,88.435822 136.168823,61.187313 
	C142.676041,61.187313 149.094955,61.187313 155.727539,61.559280 
z"/>
<path fill="#F4BB3B" opacity="1.000000" stroke="none" 
	d="
M136.096680,142.466003 
	C141.460754,141.990402 146.752670,141.978424 152.507874,141.919876 
	C153.265549,143.440765 153.813721,145.007767 153.816437,146.575729 
	C153.858948,171.062241 153.830978,195.548859 153.606567,220.592117 
	C153.186691,221.309067 153.037781,221.512100 152.947113,221.757874 
	C147.488220,221.757874 142.029312,221.757874 136.024536,221.757874 
	C136.024536,195.426193 136.024536,169.177933 136.096680,142.466003 
z"/>
<path fill="#60D8A4" opacity="1.000000" stroke="none" 
	d="
M179.536560,35.041252 
	C180.073853,43.157211 180.077438,51.245365 180.242233,59.330227 
	C180.298569,62.094746 179.284973,63.224091 176.486084,63.021259 
	C171.929199,62.691036 167.359558,62.536892 162.413086,62.123440 
	C162.030884,53.159115 162.030884,44.379795 162.030884,35.012157 
	C167.894516,35.012157 173.480255,35.012157 179.536560,35.041252 
z"/>
<path fill="#FF5A5A" opacity="1.000000" stroke="none" 
	d="
M285.804688,194.017014 
	C285.841980,201.494019 285.776489,208.973587 285.962311,216.446899 
	C286.048065,219.894684 284.770325,221.273987 281.291840,221.045013 
	C276.995117,220.762192 272.678284,220.785568 268.103973,220.327316 
	C267.837830,211.189743 267.837830,202.401474 267.837830,193.022446 
	C273.555817,193.022446 278.813904,193.022446 284.654083,193.247635 
	C285.403107,193.677795 285.592621,193.859192 285.804688,194.017014 
z"/>
<path fill="#1682FD" opacity="1.000000" stroke="none" 
	d="
M268.020386,63.595650 
	C273.791412,63.139103 279.558960,63.139103 286.105682,63.139103 
	C286.105682,71.880325 286.105682,80.413879 286.087311,89.404114 
	C280.272308,89.860779 274.475677,89.860779 268.016937,89.860779 
	C268.016937,81.195717 268.016937,72.623962 268.020386,63.595650 
z"/>
<path fill="#F3BA3B" opacity="1.000000" stroke="none" 
	d="
M161.927780,222.497086 
	C167.673706,221.545731 173.490570,221.056870 180.071823,220.503754 
	C180.071823,229.855621 180.071823,238.407257 180.007904,247.413574 
	C174.162933,247.868240 168.381866,247.868240 161.998703,247.868240 
	C161.998703,239.439453 161.998703,231.199509 161.927780,222.497086 
z"/>
<path fill="#1682FD" opacity="1.000000" stroke="none" 
	d="
M231.872650,35.925529 
	C226.369919,35.846817 220.867188,35.768108 215.099762,35.338890 
	C214.835068,26.524181 214.835068,18.059980 214.835068,9.028095 
	C220.918671,9.028095 226.519241,9.028095 232.595306,9.084076 
	C233.075165,17.114834 233.079514,25.089609 232.760742,33.652096 
	C232.249283,34.801712 232.060959,35.363617 231.872650,35.925529 
z"/>
<path fill="#1682FD" opacity="1.000000" stroke="none" 
	d="
M295.030182,89.171150 
	C300.649963,89.171150 306.269714,89.171150 312.711517,89.171150 
	C312.711517,97.509666 312.711517,105.722679 312.432495,114.441910 
	C311.753357,115.245285 311.353241,115.542442 310.953094,115.839600 
	C305.949432,115.884308 300.945801,115.929016 295.478607,115.445061 
	C295.020111,106.334648 295.025146,97.752899 295.030182,89.171150 
z"/>
<path fill="#FF5A5A" opacity="1.000000" stroke="none" 
	d="
M311.641418,167.063324 
	C312.185516,175.085739 312.172119,183.073242 312.353027,191.056335 
	C312.421417,194.072830 311.322510,195.345688 308.277130,195.010117 
	C303.617065,194.496597 298.945312,194.089600 294.083191,193.270996 
	C293.887878,192.904602 294.038910,192.459442 294.257690,191.850189 
	C294.661835,183.215012 294.847229,175.189087 295.032593,167.163177 
	C300.408813,167.117676 305.785004,167.072159 311.641418,167.063324 
z"/>
<path fill="#FF5A5A" opacity="1.000000" stroke="none" 
	d="
M215.010315,248.565247 
	C220.787354,248.106354 226.556198,248.106354 233.109787,248.106354 
	C233.109787,256.558075 233.109787,264.759552 233.078659,273.418182 
	C227.251175,273.875366 221.454819,273.875366 215.002151,273.875366 
	C215.002151,265.508911 215.002151,257.266510 215.010315,248.565247 
z"/>
<path fill="#237AE2" opacity="1.000000" stroke="none" 
	d="
M294.762909,89.180138 
	C295.025146,97.752899 295.020111,106.334648 295.017883,115.374512 
	C294.679779,113.361092 294.108643,110.895561 294.044037,108.416824 
	C293.892303,102.596146 293.982788,96.769157 293.907227,90.479645 
	C294.058014,89.739418 294.276825,89.464272 294.762909,89.180138 
z"/>
<path fill="#E65B5C" opacity="1.000000" stroke="none" 
	d="
M294.622742,167.304474 
	C294.847229,175.189087 294.661835,183.215012 294.333252,191.627625 
	C294.197662,183.824814 294.205261,175.635300 294.622742,167.304474 
z"/>
<path fill="#2269BA" opacity="1.000000" stroke="none" 
	d="
M311.279572,115.898369 
	C311.353241,115.542442 311.753357,115.245285 312.401978,114.900261 
	C312.720886,115.015495 312.791260,115.178596 312.895508,115.605705 
	C312.488281,115.898857 312.047150,115.927994 311.279572,115.898369 
z"/>
<path fill="#DA5553" opacity="1.000000" stroke="none" 
	d="
M285.888184,193.799927 
	C285.592621,193.859192 285.403107,193.677795 285.117737,193.315308 
	C285.162140,193.117508 285.325043,193.077225 285.737518,193.077423 
	C285.987122,193.117935 285.971710,193.582855 285.888184,193.799927 
z"/>
<path fill="#C79C3A" opacity="1.000000" stroke="none" 
	d="
M153.179520,221.848511 
	C153.037781,221.512100 153.186691,221.309067 153.560242,221.056427 
	C153.726624,220.964096 153.906479,221.410233 153.907471,221.650269 
	C153.908447,221.890320 153.411926,221.939133 153.179520,221.848511 
z"/>
<path fill="#314A65" opacity="1.000000" stroke="none" 
	d="
M232.098236,35.867584 
	C232.060959,35.363617 232.249283,34.801712 232.712311,34.118401 
	C232.765976,34.601212 232.544922,35.205429 232.098236,35.867584 
z"/>
</svg>